<svg width="960" height="540" viewBox="0 0 960 540" fill="none" xmlns="http://www.w3.org/2000/svg">
  <defs>
    <linearGradient id="bg" x1="120" y1="40" x2="820" y2="480" gradientUnits="userSpaceOnUse">
      <stop stop-color="#4E5CCF" stop-opacity="0.95"/>
      <stop offset="1" stop-color="#6CC7FF" stop-opacity="0.88"/>
    </linearGradient>
    <linearGradient id="glass" x1="0" y1="0" x2="320" y2="220" gradientUnits="userSpaceOnUse">
      <stop stop-color="#FFFFFF" stop-opacity="0.85"/>
      <stop offset="1" stop-color="#E8F3FF" stop-opacity="0.6"/>
    </linearGradient>
    <linearGradient id="accent" x1="0" y1="0" x2="0" y2="120" gradientUnits="userSpaceOnUse">
      <stop stop-color="#FFB457"/>
      <stop offset="1" stop-color="#FF7A9E"/>
    </linearGradient>
    <linearGradient id="accent2" x1="0" y1="0" x2="0" y2="140" gradientUnits="userSpaceOnUse">
      <stop stop-color="#74E0A1"/>
      <stop offset="1" stop-color="#3EA1FF"/>
    </linearGradient>
    <linearGradient id="accent3" x1="0" y1="0" x2="0" y2="140" gradientUnits="userSpaceOnUse">
      <stop stop-color="#C8A7FF"/>
      <stop offset="1" stop-color="#5B7BFF"/>
    </linearGradient>
  </defs>
  <rect x="0" y="0" width="960" height="540" rx="28" fill="#0F1024"/>
  <rect x="14" y="14" width="932" height="512" rx="24" fill="url(#bg)" opacity="0.92"/>
  <circle cx="140" cy="110" r="64" fill="#FFFFFF" fill-opacity="0.08"/>
  <circle cx="820" cy="110" r="52" fill="#FFFFFF" fill-opacity="0.08"/>
  <circle cx="860" cy="360" r="80" fill="#FFFFFF" fill-opacity="0.05"/>
  <rect x="72" y="120" width="360" height="210" rx="24" fill="url(#glass)" stroke="#FFFFFF" stroke-opacity="0.45" stroke-width="2"/>
  <rect x="440" y="120" width="448" height="210" rx="24" fill="#0F1024" fill-opacity="0.35" stroke="#FFFFFF" stroke-opacity="0.35" stroke-width="2"/>
  <rect x="120" y="166" width="140" height="12" rx="6" fill="#1E2A5F" opacity="0.45"/>
  <rect x="120" y="188" width="220" height="12" rx="6" fill="#1E2A5F" opacity="0.45"/>
  <rect x="120" y="210" width="260" height="12" rx="6" fill="#1E2A5F" opacity="0.35"/>
  <rect x="120" y="242" width="280" height="16" rx="8" fill="url(#accent)"/>
  <rect x="120" y="270" width="260" height="12" rx="6" fill="#1E2A5F" opacity="0.4"/>
  <rect x="120" y="292" width="240" height="12" rx="6" fill="#1E2A5F" opacity="0.35"/>
  <rect x="120" y="314" width="220" height="12" rx="6" fill="#1E2A5F" opacity="0.3"/>
  <rect x="472" y="154" width="140" height="18" rx="9" fill="#FFFFFF" fill-opacity="0.85"/>
  <rect x="472" y="182" width="320" height="14" rx="7" fill="#FFFFFF" fill-opacity="0.7"/>
  <rect x="472" y="204" width="280" height="14" rx="7" fill="#FFFFFF" fill-opacity="0.6"/>
  <rect x="472" y="226" width="240" height="14" rx="7" fill="#FFFFFF" fill-opacity="0.5"/>
  <rect x="472" y="258" width="180" height="14" rx="7" fill="#74E0A1" fill-opacity="0.85"/>
  <rect x="472" y="280" width="210" height="12" rx="6" fill="#FFFFFF" fill-opacity="0.55"/>
  <rect x="472" y="300" width="150" height="12" rx="6" fill="#FFFFFF" fill-opacity="0.4"/>
  <rect x="472" y="322" width="140" height="12" rx="6" fill="#FFFFFF" fill-opacity="0.35"/>
  <rect x="650" y="222" width="200" height="72" rx="14" fill="#121533" stroke="#FFFFFF" stroke-opacity="0.35"/>
  <rect x="670" y="236" width="72" height="44" rx="10" fill="#1E2A5F"/>
  <rect x="752" y="236" width="78" height="12" rx="6" fill="#FFFFFF" fill-opacity="0.6"/>
  <rect x="752" y="254" width="92" height="10" rx="5" fill="#FFFFFF" fill-opacity="0.5"/>
  <rect x="752" y="270" width="80" height="10" rx="5" fill="#74E0A1" fill-opacity="0.7"/>
  <rect x="70" y="360" width="240" height="130" rx="20" fill="#0F1024" fill-opacity="0.35" stroke="#FFFFFF" stroke-opacity="0.3"/>
  <rect x="340" y="360" width="240" height="130" rx="20" fill="#0F1024" fill-opacity="0.35" stroke="#FFFFFF" stroke-opacity="0.3"/>
  <rect x="610" y="360" width="240" height="130" rx="20" fill="#0F1024" fill-opacity="0.35" stroke="#FFFFFF" stroke-opacity="0.3"/>
  <rect x="96" y="392" width="84" height="12" rx="6" fill="url(#accent2)"/>
  <rect x="96" y="412" width="120" height="10" rx="5" fill="#FFFFFF" fill-opacity="0.65"/>
  <rect x="96" y="430" width="110" height="10" rx="5" fill="#FFFFFF" fill-opacity="0.55"/>
  <rect x="366" y="392" width="86" height="12" rx="6" fill="url(#accent3)"/>
  <rect x="366" y="412" width="124" height="10" rx="5" fill="#FFFFFF" fill-opacity="0.65"/>
  <rect x="366" y="430" width="116" height="10" rx="5" fill="#FFFFFF" fill-opacity="0.55"/>
  <rect x="636" y="392" width="104" height="12" rx="6" fill="url(#accent)"/>
  <rect x="636" y="412" width="142" height="10" rx="5" fill="#FFFFFF" fill-opacity="0.65"/>
  <rect x="636" y="430" width="132" height="10" rx="5" fill="#FFFFFF" fill-opacity="0.55"/>
  <circle cx="146" cy="340" r="22" fill="#FFB457" stroke="#0F1024" stroke-width="4"/>
  <circle cx="416" cy="340" r="22" fill="#74E0A1" stroke="#0F1024" stroke-width="4"/>
  <circle cx="686" cy="340" r="22" fill="#A5B9FF" stroke="#0F1024" stroke-width="4"/>
  <path d="M144 318C144 312 148 306 156 306C163 306 168 311 168 318C168 324 163 330 156 330C148 330 144 324 144 318Z" fill="#FFE8C6"/>
  <path d="M416 318C416 312 420 306 428 306C435 306 440 311 440 318C440 324 435 330 428 330C420 330 416 324 416 318Z" fill="#E4FFE6"/>
  <path d="M688 318C688 312 692 306 700 306C707 306 712 311 712 318C712 324 707 330 700 330C692 330 688 324 688 318Z" fill="#E9EDFF"/>
  <path d="M132 362C144 350 168 350 180 362V392H132V362Z" fill="#FFCBA0"/>
  <path d="M402 362C414 350 438 350 450 362V392H402V362Z" fill="#8DE0A9"/>
  <path d="M672 362C684 350 708 350 720 362V392H672V362Z" fill="#C4D0FF"/>
  <path d="M140 306C140 291 150 280 166 280C182 280 194 292 194 308C194 324 182 336 166 336C150 336 140 321 140 306Z" fill="#FFD9AA"/>
  <path d="M410 306C410 291 420 280 436 280C452 280 464 292 464 308C464 324 452 336 436 336C420 336 410 321 410 306Z" fill="#A4F5B8"/>
  <path d="M680 306C680 291 690 280 706 280C722 280 734 292 734 308C734 324 722 336 706 336C690 336 680 321 680 306Z" fill="#CCD6FF"/>
  <rect x="150" y="250" width="44" height="8" rx="4" fill="#FFFFFF" fill-opacity="0.7"/>
  <rect x="320" y="250" width="44" height="8" rx="4" fill="#FFFFFF" fill-opacity="0.4"/>
  <rect x="520" y="332" width="110" height="8" rx="4" fill="#FFFFFF" fill-opacity="0.3"/>
  <rect x="536" y="246" width="88" height="8" rx="4" fill="#FFFFFF" fill-opacity="0.35"/>
  <rect x="704" y="198" width="112" height="10" rx="5" fill="#74E0A1" fill-opacity="0.65"/>
  <path d="M180 138C188 124 210 120 222 132C234 144 242 156 254 154C266 152 276 134 290 134C304 134 316 144 322 156" stroke="#FFFFFF" stroke-opacity="0.5" stroke-width="4" stroke-linecap="round"/>
  <path d="M220 144C224 140 232 138 238 142C244 146 246 152 246 158C246 164 244 170 240 174" stroke="#FFFFFF" stroke-opacity="0.5" stroke-width="4" stroke-linecap="round"/>
  <circle cx="760" cy="188" r="6" fill="#74E0A1"/>
  <circle cx="784" cy="188" r="6" fill="#FFB457"/>
  <circle cx="808" cy="188" r="6" fill="#A5B9FF"/>
  <rect x="520" y="360" width="8" height="40" rx="4" fill="#74E0A1" fill-opacity="0.6"/>
  <rect x="790" y="360" width="8" height="40" rx="4" fill="#FFB457" fill-opacity="0.6"/>
  <rect x="250" y="360" width="8" height="40" rx="4" fill="#A5B9FF" fill-opacity="0.6"/>
  <path d="M220 380C240 370 260 370 280 380" stroke="#FFFFFF" stroke-opacity="0.45" stroke-width="4" stroke-linecap="round"/>
  <path d="M490 380C510 370 530 370 550 380" stroke="#FFFFFF" stroke-opacity="0.45" stroke-width="4" stroke-linecap="round"/>
  <path d="M760 380C780 370 800 370 820 380" stroke="#FFFFFF" stroke-opacity="0.45" stroke-width="4" stroke-linecap="round"/>
  <path d="M210 416H270" stroke="#FFFFFF" stroke-opacity="0.35" stroke-width="3" stroke-linecap="round"/>
  <path d="M480 416H540" stroke="#FFFFFF" stroke-opacity="0.35" stroke-width="3" stroke-linecap="round"/>
  <path d="M750 416H810" stroke="#FFFFFF" stroke-opacity="0.35" stroke-width="3" stroke-linecap="round"/>
  <rect x="480" y="406" width="14" height="14" rx="4" fill="#FFB457"/>
  <rect x="750" y="406" width="14" height="14" rx="4" fill="#74E0A1"/>
  <rect x="210" y="406" width="14" height="14" rx="4" fill="#A5B9FF"/>
</svg>
