<svg width="640" height="400" viewBox="0 0 640 400" xmlns="http://www.w3.org/2000/svg" role="img" aria-labelledby="title desc">
<title id="title">Neural materials grid</title>
<desc id="desc">Abstract grid combining neural network nodes with crystalline patterns.</desc>
<defs>
  <linearGradient id="grid" x1="0%" y1="0%" x2="100%" y2="100%">
    <stop offset="0%" stop-color="#0f172a" stop-opacity="0.9"/>
    <stop offset="100%" stop-color="#1f3b73" stop-opacity="0.9"/>
  </linearGradient>
  <linearGradient id="glow" x1="0%" y1="0%" x2="100%" y2="0%">
    <stop offset="0%" stop-color="#7ee0ff" stop-opacity="0.9"/>
    <stop offset="100%" stop-color="#c6f6ff" stop-opacity="0.8"/>
  </linearGradient>
</defs>
<rect width="640" height="400" fill="#0b1224"/>
<rect x="40" y="40" width="560" height="320" rx="28" fill="url(#grid)"/>
<g stroke="#2dd4bf" stroke-opacity="0.4" stroke-width="2">
  <path d="M80 80 H560 M80 140 H560 M80 200 H560 M80 260 H560 M80 320 H560"/>
  <path d="M140 80 V320 M220 80 V320 M300 80 V320 M380 80 V320 M460 80 V320 M540 80 V320"/>
</g>
<g fill="#7ee0ff" fill-opacity="0.95" stroke="#c6f6ff" stroke-width="2">
  <circle cx="140" cy="140" r="12"/>
  <circle cx="220" cy="200" r="10"/>
  <circle cx="300" cy="120" r="14"/>
  <circle cx="380" cy="260" r="12"/>
  <circle cx="460" cy="180" r="16"/>
  <circle cx="540" cy="240" r="10"/>
</g>
<path d="M140 140 L220 200 L300 120 L380 260 L460 180 L540 240" fill="none" stroke="url(#glow)" stroke-width="6" stroke-linecap="round" stroke-linejoin="round" opacity="0.85"/>
<text x="80" y="360" fill="#a5f3fc" font-family="Inter, sans-serif" font-size="18" font-weight="700">Deep learning for materials</text>
<text x="80" y="382" fill="#bfdbfe" font-family="Inter, sans-serif" font-size="13">graph networks · spectroscopy · simulation surrogates</text>
</svg>
