<svg xmlns="http://www.w3.org/2000/svg" viewBox="0 0 1200 675" role="img" aria-labelledby="title desc">
  <title id="title">Neural network architecture presentation preview</title>
  <desc id="desc">A layered neural network diagram showing input, hidden, and output layers with learning components.</desc>
  <defs>
    <linearGradient id="bg" x1="0" y1="0" x2="1" y2="1">
      <stop offset="0" stop-color="#f7fbff"/>
      <stop offset=".52" stop-color="#eef4f8"/>
      <stop offset="1" stop-color="#f9f4ef"/>
    </linearGradient>
    <linearGradient id="panel" x1="0" y1="0" x2="1" y2="1">
      <stop offset="0" stop-color="#ffffff"/>
      <stop offset="1" stop-color="#eaf3f2"/>
    </linearGradient>
    <filter id="shadow" x="-20%" y="-20%" width="140%" height="140%">
      <feDropShadow dx="0" dy="16" stdDeviation="18" flood-color="#253044" flood-opacity=".16"/>
    </filter>
    <pattern id="matrix" width="42" height="42" patternUnits="userSpaceOnUse">
      <path d="M0 21H42M21 0V42" stroke="#8ca6b8" stroke-opacity=".13" stroke-width="1.5"/>
      <circle cx="21" cy="21" r="2.8" fill="#8ca6b8" fill-opacity=".16"/>
    </pattern>
    <filter id="nodeGlow" x="-80%" y="-80%" width="260%" height="260%">
      <feGaussianBlur stdDeviation="6" result="blur"/>
      <feMerge>
        <feMergeNode in="blur"/>
        <feMergeNode in="SourceGraphic"/>
      </feMerge>
    </filter>
  </defs>
  <rect width="1200" height="675" fill="url(#bg)"/>
  <rect width="1200" height="675" fill="url(#matrix)" opacity=".72"/>
  <path d="M0 548 C190 486 294 618 474 554 C662 488 763 392 956 450 C1070 484 1139 550 1200 515 L1200 675 L0 675 Z" fill="#dcebea"/>
  <g filter="url(#shadow)">
    <rect x="92" y="76" width="1016" height="520" rx="28" fill="url(#panel)" stroke="#d6e1e5"/>
  </g>
  <text x="136" y="148" fill="#27364a" font-family="Inter, Segoe UI, sans-serif" font-size="44" font-weight="700">Neural Network Architecture</text>
  <text x="138" y="188" fill="#607082" font-family="Inter, Segoe UI, sans-serif" font-size="20">Components, data flow, training logic, and interpretability</text>
  <g stroke="#9fb5c4" stroke-width="3" opacity=".75">
    <path d="M292 250 L492 210 L692 250 L892 298"/>
    <path d="M292 338 L492 294 L692 338 L892 298"/>
    <path d="M292 426 L492 378 L692 426 L892 298"/>
    <path d="M292 250 L492 294 L692 338 L892 386"/>
    <path d="M292 338 L492 378 L692 250 L892 386"/>
    <path d="M292 426 L492 210 L692 426 L892 386"/>
  </g>
  <g stroke-width="7" stroke-linecap="round" opacity=".34">
    <path d="M292 250 L492 294 L692 338 L892 386" stroke="#b26d55"/>
    <path d="M292 426 L492 378 L692 250 L892 298" stroke="#557a62"/>
  </g>
  <g font-family="Inter, Segoe UI, sans-serif" text-anchor="middle">
    <g fill="#3e6f8f" filter="url(#nodeGlow)">
      <circle cx="292" cy="250" r="25"/>
      <circle cx="292" cy="338" r="25"/>
      <circle cx="292" cy="426" r="25"/>
    </g>
    <g fill="#557a62" filter="url(#nodeGlow)">
      <circle cx="492" cy="210" r="25"/>
      <circle cx="492" cy="294" r="25"/>
      <circle cx="492" cy="378" r="25"/>
    </g>
    <g fill="#6e5f8f" filter="url(#nodeGlow)">
      <circle cx="692" cy="250" r="25"/>
      <circle cx="692" cy="338" r="25"/>
      <circle cx="692" cy="426" r="25"/>
    </g>
    <g fill="#b26d55" filter="url(#nodeGlow)">
      <circle cx="892" cy="298" r="29"/>
      <circle cx="892" cy="386" r="29"/>
    </g>
    <text x="292" y="497" fill="#27364a" font-size="18" font-weight="700">Input</text>
    <text x="492" y="497" fill="#27364a" font-size="18" font-weight="700">Hidden 1</text>
    <text x="692" y="497" fill="#27364a" font-size="18" font-weight="700">Hidden 2</text>
    <text x="892" y="497" fill="#27364a" font-size="18" font-weight="700">Output</text>
  </g>
  <g font-family="Inter, Segoe UI, sans-serif" font-size="16" font-weight="700">
    <rect x="142" y="530" width="190" height="36" rx="18" fill="#e8f1f6" stroke="#cfdce4"/>
    <text x="237" y="554" text-anchor="middle" fill="#3e6f8f">Weights + Biases</text>
    <rect x="368" y="530" width="190" height="36" rx="18" fill="#e7f1ea" stroke="#cbdccf"/>
    <text x="463" y="554" text-anchor="middle" fill="#557a62">Activation</text>
    <rect x="594" y="530" width="190" height="36" rx="18" fill="#efedf7" stroke="#d9d3e9"/>
    <text x="689" y="554" text-anchor="middle" fill="#6e5f8f">Loss Function</text>
    <rect x="820" y="530" width="190" height="36" rx="18" fill="#f5ebe6" stroke="#e5d2ca"/>
    <text x="915" y="554" text-anchor="middle" fill="#9a5c47">Gradient Descent</text>
  </g>
  <g font-family="Inter, Segoe UI, sans-serif" font-size="14" font-weight="700">
    <rect x="954" y="236" width="98" height="34" rx="17" fill="#fff7ef" stroke="#e5d2ca"/>
    <text x="1003" y="258" text-anchor="middle" fill="#9a5c47">prediction</text>
    <path d="M922 298C950 292 966 282 980 266" stroke="#b26d55" stroke-width="4" stroke-linecap="round" stroke-dasharray="6 8"/>
    <rect x="164" y="218" width="82" height="32" rx="16" fill="#edf5f9" stroke="#cfdce4"/>
    <text x="205" y="239" text-anchor="middle" fill="#3e6f8f">features</text>
    <path d="M246 234C262 234 270 240 282 250" stroke="#3e6f8f" stroke-width="4" stroke-linecap="round" stroke-dasharray="6 8"/>
  </g>
</svg>
